<?xml version="1.0" encoding="utf-8"?>
<!-- Generator: Adobe Illustrator 22.0.1, SVG Export Plug-In . SVG Version: 6.00 Build 0)  -->
<svg version="1.1" id="Layer_2_1_" xmlns="http://www.w3.org/2000/svg" xmlns:xlink="http://www.w3.org/1999/xlink" x="0px" y="0px"
	 viewBox="0 0 42 48" style="enable-background:new 0 0 42 48;" xml:space="preserve">
<style type="text/css">
	.st0{fill:none;stroke:#5592CE;stroke-width:5;stroke-linecap:round;stroke-miterlimit:10;}
	.st1{fill:#FFFFFF;}
	.st2{fill:#5592CE;}
</style>
<line class="st0" x1="2.6" y1="45.3" x2="39.5" y2="45.4"/>
<line class="st0" x1="3.4" y1="33.7" x2="17" y2="44.8"/>
<line class="st0" x1="9" y1="25.1" x2="20.9" y2="45.5"/>
<line class="st0" x1="20.7" y1="41.6" x2="20.4" y2="12.4"/>
<line class="st0" x1="22.3" y1="44.5" x2="39.2" y2="2.8"/>
<line class="st0" x1="23.1" y1="45" x2="39.3" y2="32.9"/>
<g>
	<circle class="st1" cx="21" cy="42.7" r="5.5"/>
	<g>
		<path class="st2" d="M21,47.3c2.6,0,4.6-2.1,4.6-4.6s-2.1-4.6-4.6-4.6s-4.6,2.1-4.6,4.6C16.5,45.3,18.5,47.3,21,47.3z M18.8,41.2
			c-0.2-0.2-0.2-0.5,0-0.7s0.5-0.2,0.7,0l0,0L21,42l1.5-1.5c0.2-0.2,0.5-0.2,0.7,0s0.2,0.5,0,0.7l0,0l-1.5,1.5l1.5,1.5
			c0.2,0.2,0.2,0.5,0,0.7s-0.5,0.2-0.7,0L21,43.4l-1.5,1.5c-0.2,0.2-0.5,0.2-0.7,0s-0.2-0.5,0-0.7l1.5-1.5L18.8,41.2z"/>
	</g>
</g>
</svg>
