<?xml version="1.0" encoding="utf-8"?>
<!-- Generator: Adobe Illustrator 22.0.1, SVG Export Plug-In . SVG Version: 6.00 Build 0)  -->
<svg version="1.1" id="Layer_1" xmlns="http://www.w3.org/2000/svg" xmlns:xlink="http://www.w3.org/1999/xlink" x="0px" y="0px"
	 viewBox="0 0 42 48" style="enable-background:new 0 0 42 48;" xml:space="preserve">
<style type="text/css">
	.st0{fill:#5592CE;}
</style>
<title>Asset 409</title>
<g>
	<title>Asset 406</title>
	<g>
		<g>
			<path class="st0" d="M8.1,38.2l-6.2,6.3c-0.7,0.7-0.7,1.8,0,2.4c0.7,0.7,1.8,0.7,2.4,0l0,0l6.2-6.3c0.7-0.7,0.7-1.8,0-2.4
				C9.8,37.6,8.8,37.6,8.1,38.2L8.1,38.2z"/>
			<path class="st0" d="M32.8,9.9c0.5,0,0.8-0.2,1.2-0.6l6.3-6.2c0.7-0.7,0.7-1.8,0-2.4c-0.7-0.7-1.8-0.7-2.4,0l0,0l-6.3,6.2
				c-0.7,0.7-0.7,1.8,0,2.4C32,9.7,32.5,9.9,32.8,9.9z"/>
			<path class="st0" d="M34,38.2c-0.7-0.7-1.8-0.7-2.4,0c-0.7,0.7-0.7,1.8,0,2.4l6.2,6.3c0.7,0.7,1.8,0.7,2.4,0
				c0.7-0.7,0.7-1.8,0-2.4L34,38.2z"/>
			<path class="st0" d="M8.1,9.3c0.7,0.7,1.8,0.7,2.4,0c0.7-0.7,0.7-1.8,0-2.4L4.2,0.8C3.5,0,2.4,0,1.8,0.8s-0.7,1.8,0,2.4L8.1,9.3z
				"/>
			<path class="st0" d="M21.7,10.6c-7.2,0-12.5,5.1-12.5,11.6c0,1.1,0.8,1.9,1.9,1.9s1.9-0.8,1.9-1.9c-0.1-2.6,1.5-5.2,3.9-6.4v29.6
				c0,1.1,0.8,1.9,1.9,1.9s1.9-0.8,1.9-1.9V30.8h1.9v14.5c0,1.1,0.8,1.9,1.9,1.9s1.9-0.8,1.9-1.9V15.6c2.4,1.3,4,3.8,3.9,6.4
				c0,1.1,0.8,1.9,1.9,1.9c1.1,0,1.9-0.8,1.9-1.9C34.3,15.5,28.9,10.6,21.7,10.6z"/>
			<circle class="st0" cx="21.7" cy="4.8" r="3.9"/>
		</g>
	</g>
</g>
</svg>
